<?xml version="1.0" encoding="utf-8" ?>
<svg xmlns="http://www.w3.org/2000/svg" xmlns:xlink="http://www.w3.org/1999/xlink" width="2047" height="1023">
	<path fill="#FEFEFE" d="M0 0L1.94287 0L2043.72 0L2046.25 0C2047.7 2.28898 2047.85 4.18296 2047.92 6.8004C2048.61 34.7272 2047.99 62.8396 2047.99 90.786L2048 253.763L2048 746.267L2048.02 949.443C2048.02 962.095 2049.67 1012.2 2047.62 1021.57C2047.44 1022.42 2047.12 1023.22 2046.75 1024L2044.04 1024L3 1024L0 1024L0 0Z"/>
	<path fill="#11CAF3" d="M437.838 279.283C436.389 266.948 437.07 253.262 437.184 240.777C437.282 230.05 439.09 219.472 447.214 211.734C460.223 199.342 482.025 202.438 498.563 202.902C498.366 202.996 498.173 203.098 497.973 203.184C493.795 204.99 486.353 202.953 483.38 205.302L483.409 208.239C480.309 210.313 476.339 212.399 474.507 215.73C474.627 215.845 474.748 215.957 474.866 216.073C475.991 217.166 476.612 218.001 477.268 219.421C475.958 222.14 474.688 221.998 472.936 223.952C471.385 225.683 469.818 232.104 468.708 234.662C466.828 234.508 465.05 234.257 463.201 234.73C460.189 238.264 455.703 244.949 451.721 246.995L450.547 246.307L449.991 243.49C444.1 246.965 440.839 264.31 439.133 270.863C438.404 273.664 438.074 276.408 437.838 279.283Z"/>
	<path fill="#044887" d="M1478.18 721.499C1484.97 720.594 1492.45 721.177 1499.32 721.195C1499.94 722.401 1500.49 723.599 1500.62 724.964C1501.95 738.298 1500.86 752.948 1500.89 766.38C1500.92 780.698 1502.22 796.067 1500.69 810.223C1500.54 811.672 1499.99 812.712 1499.07 813.838C1493.56 815.937 1483.33 814.509 1477.25 814.432C1477.33 814.317 1477.42 814.206 1477.5 814.087C1480.18 809.901 1479.59 729.708 1478.18 721.499Z"/>
	<path fill="#044887" d="M413.124 721.166L435.392 721.126Q435.212 758.218 435.8 795.305L476.826 795.285L476.782 813.994L413.187 813.994L413.124 721.166Z"/>
	<path fill="#0897CE" d="M908.002 510.918C907.919 478.721 902.781 444.054 927.662 419.085C952.648 394.009 983.077 396.829 1015.7 396.912L1039.83 396.989C1037.62 399.845 1034.63 401.535 1032.05 404.001C1025.52 410.241 1020.4 417.041 1016.28 425.069C994.035 424.711 966.968 420.672 949.436 437.38C939.502 446.847 935.666 460.005 935.498 473.404C935.269 491.721 938.344 513.126 931.713 530.482C930.377 525.925 933.066 516.547 933.312 511.341C933.908 498.749 931.172 461.91 937.016 452.065C939.699 447.546 954.415 427.421 954.537 423.702L952.579 422.457C944.239 424.862 937.663 420.122 929.027 424.762C905.314 437.503 910.481 473.638 910.412 495.911C910.397 500.767 910.845 506.388 909.478 511.073L908.002 510.918Z"/>
	<path fill="#044887" d="M1393.46 721.499C1412.89 719.168 1447.26 721.054 1468.15 721.097C1468.68 721.87 1469.05 722.635 1469.33 723.535C1470.7 727.977 1470.52 735.432 1468.12 739.449L1441.28 739.686C1441.93 740.718 1442.48 741.825 1442.69 743.035C1443.89 749.905 1444.2 783.67 1441.16 788.494C1441.58 789.112 1441.92 789.721 1442.21 790.409C1444.29 795.328 1443.64 809.852 1441.45 814.686L1419.24 814.623C1419.5 814.051 1419.54 813.982 1419.78 813.314C1422.02 807.023 1421.58 745.272 1418.97 739.371L1392.47 739.199C1395.24 734.79 1394.46 726.449 1393.46 721.499Z"/>
	<path fill="#044887" d="M557.7 721.216L633.098 721.19L633.049 739.853L607.024 739.876L607.079 789.175L607.073 813.883L584.681 813.914L584.528 739.841L557.738 739.783L557.7 721.216Z"/>
	<path fill="#044887" d="M1042.65 721.471C1061.77 719.153 1094.1 721.071 1114.65 721.138C1114.98 721.723 1115.27 722.31 1115.5 722.946C1117.25 727.861 1116.98 736.229 1114.65 740.861L1090.77 740.684C1091.51 741.87 1092.12 743.143 1092.38 744.528C1093.66 751.395 1093.71 786.681 1090.67 791.534C1091.08 792.164 1091.41 792.77 1091.7 793.471C1093.75 798.352 1092.83 809.803 1090.96 814.721L1068.53 814.698C1068.89 814.038 1069.18 813.387 1069.42 812.676C1071.39 806.853 1070.69 744.955 1068.25 740.567L1041.75 740.635C1044.48 736.367 1043.65 726.335 1042.65 721.471Z"/>
	<path fill="#044887" d="M1346.38 720.499C1357.8 719.278 1370.84 720.73 1380.4 727.602C1384.15 730.301 1389.23 735.409 1390.06 740.094C1387.87 743.873 1378.02 748.109 1373.93 750.429C1373.79 749.777 1373.83 749.79 1373.5 749.074C1371.19 744.045 1365.9 740.845 1360.74 739.531C1354.45 737.93 1347.84 738.429 1342.23 741.855C1336.03 745.649 1332.55 752.19 1330.98 759.119C1328.86 768.509 1330.13 779.564 1335.41 787.743C1338.59 792.664 1343.07 796.348 1348.9 797.535C1362.36 800.275 1366.24 792.451 1375.54 786.425L1377.22 787.928C1381.57 789.587 1388.79 794.889 1391.27 798.879C1391.08 799.376 1390.88 799.846 1390.62 800.311C1386.45 807.789 1374.47 813.081 1366.54 815.189Q1365.35 815.515 1364.15 815.782Q1362.95 816.048 1361.74 816.255Q1360.52 816.461 1359.3 816.607Q1358.08 816.752 1356.85 816.837Q1355.63 816.922 1354.39 816.945Q1353.16 816.969 1351.93 816.93Q1350.7 816.893 1349.48 816.793Q1348.25 816.694 1347.03 816.534Q1345.81 816.374 1344.6 816.153Q1343.39 815.932 1342.19 815.651Q1340.99 815.371 1339.81 815.031Q1338.63 814.69 1337.46 814.292Q1336.3 813.893 1335.16 813.437Q1334.01 812.981 1332.89 812.468Q1331.78 811.956 1330.68 811.388Q1329.59 810.82 1328.53 810.199C1317.84 803.849 1310.69 793.349 1307.69 781.373Q1307.37 780.129 1307.11 778.871Q1306.85 777.613 1306.66 776.343Q1306.46 775.073 1306.33 773.796Q1306.2 772.518 1306.13 771.235Q1306.07 769.953 1306.06 768.668Q1306.06 767.384 1306.12 766.101Q1306.18 764.818 1306.31 763.539Q1306.43 762.261 1306.62 760.99Q1306.81 759.72 1307.06 758.46Q1307.31 757.201 1307.63 755.955Q1307.94 754.71 1308.32 753.482Q1308.7 752.254 1309.13 751.046Q1309.57 749.838 1310.07 748.654Q1310.56 747.47 1311.12 746.312Q1311.68 745.153 1312.29 744.025Q1312.9 742.896 1313.57 741.799C1321.31 729.376 1332.6 723.622 1346.38 720.499Z"/>
	<path fill="#044887" d="M885.59 719.353Q889.501 719.111 893.42 719.091C907.543 719.138 918.596 724.109 928.485 734.025L914.185 748.42C908.191 742.969 900.95 738.188 892.717 737.214C886.681 736.5 881.078 738.359 876.396 742.192C869.874 747.532 866.114 755.749 865.28 764.039C864.369 773.086 866.793 782.703 872.69 789.733C876.512 794.288 881.721 797.44 887.723 797.871C897.898 798.601 906.685 793.196 914.037 786.84Q921.316 794.24 928.674 801.56C920.371 808.908 910.861 814.071 899.833 815.879C886.365 818.088 871.541 815.422 860.432 807.305C850.269 799.878 843.935 788.579 842.148 776.189C840.212 762.77 842.582 747.898 850.935 736.973C859.583 725.662 871.924 721.036 885.59 719.353Z"/>
	<path fill="#044887" d="M1003.2 719.401C1005.78 719.553 1008.41 719.716 1010.97 720.116C1017.98 721.212 1030.04 724.86 1034.42 730.828C1034.07 735.513 1026.95 742.449 1024 746.096C1019.16 742.779 1012.53 738.95 1006.67 738.378C1001.63 737.886 995.592 737.75 991.511 741.325C989.628 742.974 989.248 744.814 989.027 747.204C991.475 756.436 1021.13 761.061 1030.41 769.865Q1030.83 770.257 1031.23 770.671Q1031.63 771.084 1032.01 771.518Q1032.39 771.951 1032.75 772.404Q1033.1 772.856 1033.43 773.327Q1033.77 773.797 1034.07 774.284Q1034.38 774.771 1034.66 775.273Q1034.94 775.775 1035.2 776.291Q1035.46 776.807 1035.68 777.335Q1035.91 777.864 1036.11 778.403Q1036.31 778.943 1036.49 779.492Q1036.66 780.041 1036.8 780.599Q1036.95 781.156 1037.06 781.72Q1037.18 782.285 1037.26 782.854Q1037.35 783.423 1037.4 783.996Q1037.46 784.569 1037.49 785.144Q1037.51 785.719 1037.51 786.295C1037.49 792.95 1035.03 801.592 1030.18 806.317C1021.06 815.194 1006.29 816.177 994.277 816.011C981.657 814.115 972.926 810.081 962.35 803.322C966.629 798.584 970.649 793.559 974.757 788.669C978.103 790.93 981.758 793.352 985.571 794.738C993.435 797.597 1002.22 799.767 1010.11 795.869C1013.01 794.436 1013.62 792.692 1014.57 789.761C1012.23 779.158 985.379 775.374 976.079 767.443C970.929 763.05 967.74 757.332 967.278 750.527C966.822 743.818 969.03 735.041 973.593 729.94C980.937 721.729 992.817 720.062 1003.2 719.401Z"/>
	<path fill="#044887" d="M488.698 721.158L549.664 721.189L549.659 739.826L510.077 739.904L510.068 757.993L545.996 757.941L545.975 775.939C534.382 775.906 521.651 774.88 510.173 776.332L510.125 795.414L550.024 795.405L549.884 813.987L488.607 814L488.698 721.158Z"/>
	<path fill="#353432" d="M1.96974 1021.85L1356.92 1021.82L1818.13 1021.89L1970.26 1021.93C1994.9 1021.93 2020.33 1023.25 2044.88 1021.9L2044.04 1024L3 1024L1.96974 1021.85Z"/>
	<path fill="#044887" d="M333.883 721.213L399.337 721.159L399.329 739.719L356.004 739.76L355.987 758.643L396.401 758.633L396.397 776.085L356.069 776.116L356.017 795.303L399.993 795.62L399.902 813.987L333.902 813.939L333.883 721.213Z"/>
	<path fill="#044887" d="M1242.69 721.497C1250.2 720.514 1258.37 721.116 1265.96 721.121C1266.67 721.714 1267.17 722.157 1267.69 722.925C1271.68 728.789 1303.29 811.097 1302.82 814.34L1278.99 814.153C1279.04 813.92 1279.1 813.689 1279.14 813.454C1279.86 809.344 1274.57 799.502 1272.08 796.319L1267.83 795.836L1237.32 795.868C1237.48 796.346 1237.61 796.609 1237.66 797.091C1238.08 801.186 1233.39 811.053 1230.85 814.24L1208.21 814.378C1208.33 814.254 1208.47 814.141 1208.58 814.006C1210.5 811.663 1242.85 725.332 1242.69 721.497Z"/>
	<path fill="#FEFEFE" d="M1254.73 747.497L1255.78 748.032C1259.67 753.288 1263.85 769.204 1265.71 776.074C1263.72 777.642 1258.43 776.975 1255.75 776.998L1244.28 776.836C1249.61 769.585 1252.26 756.289 1254.73 747.497Z"/>
	<path fill="#044887" d="M1630.73 721.5C1636.39 721.125 1642.2 721.285 1647.87 721.206C1653.96 724.948 1677.79 758.037 1683.74 766.022C1687.28 770.78 1692.68 776.729 1691.77 782.989C1694.52 775.172 1694.87 728.427 1691.9 721.281L1713.12 721.279C1713.53 721.948 1713.86 722.604 1714.15 723.344C1716.12 728.528 1714.96 808.295 1712.91 812.503L1712.39 813.491C1708.15 815.292 1699.5 814.261 1694.72 814.218C1694.71 814.034 1694.72 813.847 1694.68 813.666C1694.58 813.224 1652.75 756.666 1650.25 754.548C1650.5 755.157 1650.74 755.758 1650.95 756.382C1653.39 763.685 1653.9 807.783 1650.53 814.504L1629.48 814.573C1632.79 808.233 1631.31 733.751 1630.73 721.5Z"/>
	<path fill="#044887" d="M803.851 721.047L824.199 721.084L824.174 781.304C824.169 792.055 824.759 803.192 823.638 813.88L801.761 813.923C787.232 794.403 773.94 773.66 760.051 753.647L760.218 813.921L739.385 813.939L739.157 721.244L762.156 721.117L803.844 780.011L803.851 721.047Z"/>
	<path fill="#044887" d="M1127.78 721.495C1140.57 719.793 1171.54 719.53 1184.1 723.33C1191.14 725.459 1196.97 730.009 1200.44 736.532C1204.7 744.556 1205.31 754.664 1202.5 763.26C1199.87 771.286 1195.01 776.488 1187.55 780.22Q1188.35 780.907 1189.05 781.69C1192.78 785.779 1205.98 808.978 1205.66 814.337L1191.75 814.233L1181.83 814.122C1180.47 807.041 1172.34 790.733 1166.81 786.287L1149.17 786.18C1149.81 787.218 1150.36 788.325 1150.58 789.537C1151.59 795.347 1152.11 809.358 1149.06 814.205L1126.74 814.168C1126.84 814.019 1126.95 813.874 1127.04 813.72C1129.58 809.583 1129.45 729.987 1127.78 721.495Z"/>
	<path fill="#FEFEFE" d="M1149.71 739.495C1154.61 738.882 1161.02 738.365 1165.85 739.285C1171.3 740.324 1177.92 743.236 1181.1 748.024C1182.38 749.941 1183.2 752.558 1182.63 754.845C1181.77 758.338 1179.83 762.615 1176.65 764.502L1175.57 766.092C1168.59 770.284 1156.9 768.975 1148.87 768.966C1148.96 768.803 1149.06 768.643 1149.15 768.477C1152.21 762.561 1151.46 745.771 1149.71 739.495Z"/>
	<path fill="#044887" d="M647.933 721.223C664.234 721.09 683.837 718.896 699.625 722.793C708.059 724.875 715.996 729.4 720.413 737.109C724.943 745.015 725.522 755.999 722.978 764.628C720.336 773.588 713.994 778.668 706.149 782.955L725.397 813.77L713.632 813.919L700.598 813.949L685.754 786.364L669.899 786.45L669.94 813.981L647.812 813.979Q647.602 767.6 647.933 721.223Z"/>
	<path fill="#FEFEFE" d="M669.722 739.572C677.846 739.48 686.784 738.611 694.393 742.026C697.316 743.338 699.938 745.433 701.061 748.528C702.979 753.812 700.939 759.52 698.589 764.275C691.143 769.866 678.637 768.004 669.726 767.817L669.722 739.572Z"/>
	<path fill="#0E0A0B" d="M0 0L1.94287 0L2043.72 0L2046.25 0C2047.7 2.28898 2047.85 4.18296 2047.92 6.8004C2048.61 34.7272 2047.99 62.8396 2047.99 90.786L2048 253.763L2048 746.267L2048.02 949.443C2048.02 962.095 2049.67 1012.2 2047.62 1021.57C2047.44 1022.42 2047.12 1023.22 2046.75 1024L2044.04 1024L2044.88 1021.9C2045.26 1021.12 2045.62 1020.3 2045.85 1019.46C2048.05 1011.72 2046.39 972.353 2046.39 962.239L2046.4 789.968L2046.3 16.3112C2046.28 11.8596 2046.95 6.02527 2044.71 2.06388C2019.08 1.01971 1993.07 1.91344 1967.4 1.92489L1819.11 1.98456L1370.67 1.93942L1.9124 1.9333C0.676204 78.7668 1.84919 155.784 1.85293 232.636L1.82787 682.549L1.83444 914.784L1.69728 985.379C1.66661 997.242 0.762008 1010.07 1.96974 1021.85L3 1024L0 1024L0 0Z"/>
	<path fill="#044887" d="M1561.08 719.5C1574.23 718.487 1587.79 721.55 1598.06 730.131C1607.99 738.431 1613.65 750.615 1614.67 763.417C1615.71 776.569 1612.18 790.149 1603.4 800.201C1594.35 810.564 1582.21 815.174 1568.75 816.014C1557.11 816.664 1544.99 813.772 1535.54 806.768C1525.36 799.22 1519.59 787.908 1517.82 775.501C1515.9 762.097 1518.9 748.335 1527.1 737.445C1535.73 725.981 1547.36 721.427 1561.08 719.5Z"/>
	<path fill="#FEFEFE" d="M1558.25 738.499C1566.39 737.414 1572.89 737.284 1579.94 742.067C1586.44 746.471 1590.28 753.565 1591.69 761.173C1593.31 769.913 1592.09 779.816 1586.87 787.189C1582.67 793.117 1577.26 796.098 1570.23 797.368C1566.99 798.541 1562.26 798.095 1558.96 797.225C1552.78 795.59 1548.07 791.101 1544.92 785.666C1540.2 777.541 1538.83 767.082 1541.38 758.033C1544.14 748.292 1549.73 743.162 1558.25 738.499Z"/>
	<path fill="#0577B3" d="M801.928 391.452C795.504 386.836 789.658 382.776 785.921 375.541C781.714 367.399 780.142 358.388 783.041 349.532C785.873 340.88 792.549 333.616 800.67 329.608Q801.491 329.208 802.331 328.849Q803.172 328.49 804.029 328.174Q804.886 327.858 805.758 327.584Q806.63 327.311 807.514 327.081Q808.398 326.852 809.293 326.667Q810.188 326.482 811.09 326.341Q811.993 326.201 812.902 326.106Q813.811 326.011 814.723 325.961Q815.635 325.911 816.549 325.907Q817.462 325.903 818.375 325.944Q819.288 325.986 820.197 326.072Q821.107 326.159 822.011 326.291Q822.915 326.423 823.811 326.6Q824.708 326.777 825.594 326.999Q826.48 327.22 827.355 327.485Q828.229 327.75 829.089 328.059C837.324 330.956 844.137 336.678 847.783 344.677C851.715 353.302 852.173 364.367 848.817 373.249C845.149 382.957 837.815 388.438 828.753 392.658L828.819 473.658C828.814 486.628 827.624 500.847 829.439 513.65C830.301 519.725 832.221 525.375 835.72 530.45C841.624 539.009 851.062 544.772 861.248 546.614Q862.273 546.79 863.306 546.916Q864.338 547.041 865.376 547.115Q866.413 547.189 867.453 547.212Q868.493 547.234 869.533 547.205Q870.573 547.176 871.61 547.096Q872.647 547.015 873.679 546.884Q874.71 546.752 875.734 546.569Q876.758 546.387 877.772 546.154Q878.786 545.921 879.787 545.638Q880.788 545.355 881.773 545.023Q882.759 544.69 883.727 544.31Q884.695 543.929 885.643 543.501Q886.591 543.073 887.517 542.599Q888.443 542.124 889.344 541.604Q890.245 541.085 891.119 540.521Q891.993 539.957 892.838 539.351C902.465 532.361 906.176 522.184 908.002 510.918L909.478 511.073C910.845 506.388 910.397 500.767 910.412 495.911C910.481 473.638 905.314 437.503 929.027 424.762C937.663 420.122 944.239 424.862 952.579 422.457L954.537 423.702C954.415 427.421 939.699 447.546 937.016 452.065C931.172 461.91 933.908 498.749 933.312 511.341C933.066 516.547 930.377 525.925 931.713 530.482C930.569 538.548 923.751 547.985 918.137 553.698C905.616 566.441 888.058 574.967 870.07 575.009C852.065 575.052 834.066 568.503 821.228 555.686Q819.655 554.102 818.194 552.415Q816.734 550.727 815.391 548.944Q814.049 547.161 812.832 545.29Q811.615 543.419 810.528 541.47Q809.442 539.52 808.491 537.501Q807.54 535.482 806.729 533.402Q805.919 531.323 805.252 529.193Q804.585 527.063 804.066 524.892C799.699 507.23 801.756 486.784 801.786 468.644L801.928 391.452Z"/>
	<defs>
		<linearGradient id="gradient_0" gradientUnits="userSpaceOnUse" x1="773.74841" y1="625.19019" x2="444.3764" y2="236.75032">
			<stop offset="0" stop-color="#02337E"/>
			<stop offset="1" stop-color="#0CC1F3"/>
		</linearGradient>
	</defs>
	<path fill="url(#gradient_0)" d="M498.563 202.902C515.033 201.786 531.976 202.527 548.497 202.518L639.863 202.42L707.11 202.273C718.979 202.256 731.632 201.358 743.383 202.788C748.839 203.452 754.006 205.327 758.104 209.072C758.143 209.108 758.171 209.154 758.204 209.196C765.11 214.488 769.679 221.284 770.796 230.012C773.354 250.007 771.225 272.118 771.285 292.373L771.501 428.324L771.452 559.117C771.366 578.496 772.717 598.948 770.819 618.169C770.259 623.839 768.243 628.612 764.704 633.087Q764.243 633.677 763.754 634.243Q763.264 634.809 762.747 635.35Q762.229 635.891 761.685 636.404Q761.141 636.918 760.572 637.404Q760.002 637.89 759.409 638.347Q758.816 638.804 758.201 639.23Q757.586 639.656 756.95 640.051Q756.314 640.445 755.659 640.808Q755.004 641.17 754.332 641.499Q753.659 641.827 752.971 642.122Q752.283 642.416 751.581 642.676Q750.879 642.935 750.165 643.159Q749.45 643.383 748.726 643.57Q748.001 643.758 747.268 643.908Q746.535 644.059 745.795 644.173Q745.056 644.287 744.311 644.363C727.954 646.155 710.319 644.864 693.847 644.833L595.79 644.61L507.281 644.711C492.099 644.738 475.853 645.866 460.801 644.195C455.66 643.624 450.913 641.236 446.893 638.043C440.739 633.155 438.126 625.011 437.384 617.451C436.105 604.408 437.19 590.482 437.402 577.364L437.514 378.506C437.553 347.18 435.711 309.917 437.838 279.283C438.074 276.408 438.404 273.664 439.133 270.863C440.839 264.31 444.1 246.965 449.991 243.49L450.547 246.307L451.721 246.995C455.703 244.949 460.189 238.264 463.201 234.73C465.05 234.257 466.828 234.508 468.708 234.662C469.818 232.104 471.385 225.683 472.936 223.952C474.688 221.998 475.958 222.14 477.268 219.421C476.612 218.001 475.991 217.166 474.866 216.073C474.748 215.957 474.627 215.845 474.507 215.73C476.339 212.399 480.309 210.313 483.409 208.239L483.38 205.302C486.353 202.953 493.795 204.99 497.973 203.184C498.173 203.098 498.366 202.996 498.563 202.902Z"/>
	<path fill="#FEFEFE" d="M507.726 453.86C513.617 438.473 522.621 423.765 530.272 409.198L569.959 333.233L595.112 284.636C600.028 275.119 604.735 264.404 611.051 255.761C611.186 280.315 610.522 304.9 611.148 329.446Q610.718 361.369 610.968 393.294L711.672 393.768C674.848 460.115 636.42 525.664 600.311 592.387L600.635 453.855C574.797 453.848 548.82 453.315 523 454.098C517.956 453.803 512.784 453.93 507.726 453.86Z"/>
	<path fill="#0577B3" d="M1067 396.466C1071.29 392.014 1073.54 379.352 1075.22 373.348Q1084.67 339.606 1093.62 305.727C1097.46 291.17 1100.33 274.639 1106.77 261.004C1110.16 253.819 1115.19 246.517 1121.79 241.978C1129.33 236.792 1138.78 234.312 1147.82 233.568C1165.56 232.108 1184.18 233.196 1202 233.208L1305.69 233.212L1407.86 233.062C1425.74 233.037 1446.18 231.007 1463.67 234.491C1474.98 236.745 1486.79 244.938 1493.15 254.487C1496.03 258.806 1498.11 263.548 1499.67 268.483C1502.12 276.216 1515.76 334.352 1514.79 339.078C1517.22 342.626 1528.21 388.603 1527.57 392.781C1527.5 393.24 1527.21 393.894 1527.06 394.288Q1528.75 394.625 1530.41 395.043Q1532.08 395.461 1533.72 395.96Q1535.37 396.459 1536.99 397.038Q1538.6 397.616 1540.19 398.273Q1541.78 398.929 1543.33 399.662Q1544.89 400.395 1546.4 401.203Q1547.92 402.011 1549.4 402.891Q1550.87 403.772 1552.3 404.724Q1553.73 405.675 1555.12 406.695Q1556.5 407.715 1557.83 408.801Q1559.16 409.887 1560.44 411.037Q1561.72 412.187 1562.94 413.397Q1564.16 414.608 1565.32 415.876Q1566.47 417.144 1567.57 418.468Q1568.67 419.791 1569.7 421.166Q1570.73 422.541 1571.69 423.965C1577.98 433.283 1581.57 444.467 1583.07 455.565C1584.93 469.294 1583.81 484.184 1583.81 498.066L1583.8 578.159L1583.77 620.305C1583.77 626.698 1584.49 634.163 1583.5 640.459C1583.34 641.477 1582.87 642.396 1582.32 643.258L1479.42 643.197C1481.99 638.708 1482.24 605.747 1480.61 599.84C1480.32 598.772 1479.84 597.801 1479.27 596.858C1467.78 596.824 1456.26 596.955 1444.78 596.744C1410.38 597.96 1375.51 596.818 1341.07 596.853L1121.48 596.799C1121.86 597.389 1122.06 597.64 1122.31 598.257C1124.41 603.564 1123.87 640.043 1121.5 644.842Q1069.67 644.52 1017.83 644.756L1017.84 519.898C1017.85 498.178 1015.59 473.646 1019.5 452.335C1023.41 431.056 1034.17 416.365 1052.28 404.884C1056.89 401.96 1062.25 399.835 1066.64 396.726C1066.77 396.641 1066.88 396.553 1067 396.466Z"/>
	<path fill="#044887" d="M1536.41 600.494L1539.37 601.198C1539.54 603.905 1537.89 604.967 1536.23 607.004L1535 604.379L1536.41 600.494Z"/>
	<path fill="#FEFEFE" d="M1453.13 466.5C1467.42 465.723 1512.26 464.828 1523.88 466.636C1528.25 467.315 1532.54 468.735 1536.17 471.3C1540.31 474.225 1543.17 478.487 1543.91 483.539C1544.69 488.904 1543.49 495.879 1540.09 500.22C1536.18 505.208 1531.42 507.588 1525.24 508.426C1521.74 509.187 1464.75 508.992 1458.19 508.591C1455.63 508.436 1453.31 507.98 1450.92 507.06C1445.4 504.938 1440.64 500.848 1438.36 495.323Q1438.17 494.848 1438 494.365Q1437.83 493.882 1437.69 493.391Q1437.55 492.9 1437.43 492.402Q1437.31 491.905 1437.22 491.402Q1437.12 490.9 1437.05 490.393Q1436.98 489.886 1436.94 489.377Q1436.9 488.867 1436.88 488.356Q1436.86 487.845 1436.86 487.334Q1436.87 486.823 1436.9 486.312Q1436.93 485.802 1436.99 485.293Q1437.05 484.785 1437.13 484.28Q1437.21 483.775 1437.31 483.275Q1437.42 482.775 1437.55 482.28Q1437.68 481.786 1437.84 481.299Q1437.99 480.811 1438.17 480.332Q1438.35 479.853 1438.55 479.383C1441.49 472.418 1446.38 469.287 1453.13 466.5Z"/>
	<path fill="#044887" d="M1514.79 339.078C1517.22 342.626 1528.21 388.603 1527.57 392.781C1527.5 393.24 1527.21 393.894 1527.06 394.288Q1528.75 394.625 1530.41 395.043Q1532.08 395.461 1533.72 395.96Q1535.37 396.459 1536.99 397.038Q1538.6 397.616 1540.19 398.273Q1541.78 398.929 1543.33 399.662Q1544.89 400.395 1546.4 401.203Q1547.92 402.011 1549.4 402.891Q1550.87 403.772 1552.3 404.724Q1553.73 405.675 1555.12 406.695Q1556.5 407.715 1557.83 408.801Q1559.16 409.887 1560.44 411.037Q1561.72 412.187 1562.94 413.397Q1564.16 414.608 1565.32 415.876Q1566.47 417.144 1567.57 418.468Q1568.67 419.791 1569.7 421.166Q1570.73 422.541 1571.69 423.965C1577.98 433.283 1581.57 444.467 1583.07 455.565C1584.93 469.294 1583.81 484.184 1583.81 498.066L1583.8 578.159L1583.77 620.305C1583.77 626.698 1584.49 634.163 1583.5 640.459C1583.34 641.477 1582.87 642.396 1582.32 643.258L1479.42 643.197C1481.99 638.708 1482.24 605.747 1480.61 599.84C1480.32 598.772 1479.84 597.801 1479.27 596.858C1467.78 596.824 1456.26 596.955 1444.78 596.744C1440.88 594.079 1377.52 595.847 1366.81 595.413C1367.08 595.243 1367.58 594.885 1367.92 594.762C1371.06 593.607 1465.38 594.053 1475.46 594.313C1477.83 594.374 1479.92 594.673 1482.17 595.438Q1482.5 596.407 1482.72 597.405C1484.21 603.966 1484.84 636.072 1481.61 641.071Q1489.67 641.068 1497.72 640.745C1500.03 638.596 1502.41 635.499 1505.52 635.036L1508.36 638.48C1511.03 639.491 1513.33 638.694 1515.94 637.942C1524.22 635.547 1563.61 594.192 1569.49 585.846C1567.61 585.304 1565.32 585.54 1563.36 585.525C1558.44 588.594 1556.23 594.42 1552.15 598.355C1550.36 600.091 1549.63 600.154 1547.31 600.183C1545.36 598.806 1544.46 597.85 1543.56 595.625C1544.71 590.916 1573.83 563.128 1579.47 555.697C1580.97 553.727 1580.28 550.972 1579.99 548.677C1577.86 548.239 1570.45 557.033 1567.03 558.397C1565.5 559.003 1564.95 559.358 1563.39 558.69C1564.79 551.809 1576.3 544.501 1581.07 539.312C1581.41 535.788 1581.94 532.1 1581.44 528.577C1581.23 527.077 1581.29 526.872 1580.05 525.923C1577.08 529.174 1574.74 533.057 1570.53 534.462L1570.23 533.115C1573.93 528.695 1577.28 524.874 1580.42 519.991L1581.26 521.258L1581.75 520.722C1581.86 508.086 1582.53 495.32 1582.24 482.701C1582.17 479.493 1581.45 476.322 1581.42 473.132C1581.36 466.946 1582.38 460.51 1581.38 454.375C1579.85 445.028 1575.61 434.681 1570.56 426.672C1560.36 410.511 1543.98 399.98 1525.52 395.73C1526.42 380.142 1512.48 352.355 1514.79 339.078Z"/>
	<path fill="#FEFEFE" d="M1075.9 462.491C1089.2 461.127 1132.09 460.464 1144.51 462.605C1149.78 463.514 1155.01 465.526 1159.23 468.868C1164.07 472.706 1166.72 477.771 1167.3 483.895C1167.94 490.701 1166.64 496.605 1162.11 501.844C1157.38 507.31 1152 509.404 1144.93 509.948C1129.02 510.025 1081.36 512.623 1068.62 508.254C1063.26 506.418 1058.13 502.804 1055.75 497.525C1053.1 491.636 1054.31 484.772 1056.67 478.998C1060.34 470.011 1067.48 466.147 1075.9 462.491Z"/>
	<path fill="#FEFEFE" d="M1141.16 279.491C1151.56 276.53 1210.83 278.669 1226.62 278.689L1456.23 278.923C1456.89 279.667 1457.58 280.491 1458.02 281.389C1461.98 289.337 1479.68 365.153 1481.52 377C1481.77 378.628 1481.53 380.103 1481.09 381.675L1453.75 381.701L1114.18 381.285C1114.39 381.051 1114.78 380.645 1114.96 380.35C1118.41 374.747 1142 284.262 1141.16 279.491Z"/>
</svg>
